<?xml version="1.0" encoding="utf-8"?>
<!-- Generator: Adobe Illustrator 18.1.1, SVG Export Plug-In . SVG Version: 6.00 Build 0)  -->
<svg version="1.1" id="Layer_1" xmlns="http://www.w3.org/2000/svg" xmlns:xlink="http://www.w3.org/1999/xlink" x="0px" y="0px"
	 viewBox="0 249.6 595.3 592.3" enable-background="new 0 249.6 595.3 592.3" xml:space="preserve">
<path fill="#FFFFFF" d="M10.3,445.5h122.1v396.4H10.3V445.5z M72.5,249.6c39.1,0,71.4,32.3,71.4,71.4s-32.3,71.4-71.4,71.4
	S1.1,360.1,1.1,321S33.4,249.6,72.5,249.6z M210.7,445.5h117.5v53h2.3c16.1-32.4,57.6-64.6,117.5-64.6
	c124.4,0,147.4,83.1,147.4,189.1v216.6H473.3V646.1c0-46.1,0-106-64.4-106s-73.7,50.7-73.7,101.5v195.8H210.7L210.7,445.5
	L210.7,445.5z"/>
</svg>
