<?xml version="1.0" encoding="utf-8"?>
<!-- Generator: Adobe Illustrator 18.1.1, SVG Export Plug-In . SVG Version: 6.00 Build 0)  -->
<svg version="1.1" id="Layer_1" xmlns="http://www.w3.org/2000/svg" xmlns:xlink="http://www.w3.org/1999/xlink" x="0px" y="0px"
	 viewBox="0 357.8 595.3 484.1" enable-background="new 0 357.8 595.3 484.1" xml:space="preserve">
<path fill="#FFFFFF" d="M595.5,415c-22,9.8-45.5,16.3-70.1,19.2c25.3-15,44.6-39,53.8-67.5c-23.7,13.9-49.9,24.2-77.7,29.7
	c-22.3-23.8-54-38.6-89.1-38.6c-67.4,0-122.2,54.7-122.2,122.2c0,9.6,1.2,19,3.3,27.9c-101.8-5.3-191.8-53.9-252-127.7
	c-10.4,18.1-16.5,39-16.5,61.4c0,42.5,21.6,79.7,54.5,101.7c-19.9-0.7-38.7-6.1-55.2-15.3v1.6c0,59.2,42,108.5,97.9,119.7
	c-10.2,2.8-21.1,4.4-32.2,4.4c-7.9,0-15.5-0.9-23.1-2.1c15.5,48.5,60.8,83.8,114.1,84.9c-41.8,32.7-94.4,52.2-151.8,52.2
	c-9.7,0-19.6-0.7-29.2-1.8c54,34.6,118.2,55,187.2,55c224.7,0,347.4-186.2,347.4-347.4c0-5.3-0.2-10.7-0.4-16
	C558.5,460.8,579.1,439.3,595.5,415L595.5,415z"/>
</svg>
