<?xml version="1.0" encoding="utf-8"?>
<!-- Generator: Adobe Illustrator 18.1.1, SVG Export Plug-In . SVG Version: 6.00 Build 0)  -->
<svg version="1.1" id="Layer_1" xmlns="http://www.w3.org/2000/svg" xmlns:xlink="http://www.w3.org/1999/xlink" x="0px" y="0px"
	 viewBox="0 245 595.3 596.9" enable-background="new 0 245 595.3 596.9" xml:space="preserve">
<path fill="#FFFFFF" d="M595.2,511.3h-78.9v-78.8H476v78.8h-78.9v38.6H476v78.9h40.3v-78.9h78.9V511.3z M313.2,585.5l-28.8-21.9
	c-8.8-7-20.7-16.4-20.7-33.8c0-17.3,11.9-28.2,22.3-38.6c33.5-25.9,66.9-53.4,66.9-111.3c0-59.7-36.2-88.5-54.7-103.4h47.2L397,245
	H230.9c-43.1,0-101.2,4.4-146.5,41.4C50.2,315.3,39,358.1,39,394.2c0,61.2,47.9,123.2,132.4,123.2c8.1,0,16.6-0.8,25.4-1.7
	c-4,9.3-8,17.2-8,30.6c0,24.3,12.8,39.3,23.8,53.3C177,602,110.1,606,60.7,635.8c-47.1,27.7-61.4,67.6-61.4,95.8
	c0,58.2,53.4,112.8,169,112.8c137,0,211.7-75.1,211.7-148.9C380.1,641.2,348.2,614.6,313.2,585.5L313.2,585.5z M208.9,497.4
	c-68.6,0-99.5-87.1-99.5-139.7c0-20.4,4.1-43.6,17.5-60.1c12.8-15.8,35-23.9,55.7-23.9c66-0.1,100.4,87.8,100.4,144.2
	c0,14.2-1.5,37.2-19.9,55.3C250.4,486,228.8,497.2,208.9,497.4L208.9,497.4z M209.4,810.9c-85.2,0-140.3-40-140.3-95.9
	c0-55.7,51-74.5,68.6-80.8c33.5-11.1,76.5-12.6,83.6-12.6c8,0,12,0,18.3,0.9c60.7,42.4,86.9,63.4,86.9,103.6
	C326.6,774.7,286,810.9,209.4,810.9L209.4,810.9z"/>
</svg>
