<?xml version="1.0" encoding="utf-8"?>
<!-- Generator: Adobe Illustrator 18.1.1, SVG Export Plug-In . SVG Version: 6.00 Build 0)  -->
<svg version="1.1" id="Layer_1" xmlns="http://www.w3.org/2000/svg" xmlns:xlink="http://www.w3.org/1999/xlink" x="0px" y="0px"
	 viewBox="0 124.9 595.3 592.5" enable-background="new 0 124.9 595.3 592.5" xml:space="preserve">
<g>
	<path fill="#FFFFFF" d="M377,600.7H98.7C44.3,600.7,0,556.4,0,501.9V223.6c0-54.5,44.3-98.7,98.7-98.7H377
		c54.4,0,98.7,44.3,98.7,98.7v278.3C475.8,556.4,431.5,600.7,377,600.7z M98.7,153.1c-38.9,0-70.5,31.6-70.5,70.5v278.3
		c0,38.9,31.6,70.5,70.5,70.5H377c38.9,0,70.5-31.6,70.5-70.5V223.6c0-38.9-31.6-70.5-70.5-70.5H98.7z"/>
</g>
<g>
	<path fill="#FFFFFF" d="M509.2,717.4H168.3c-46.6,0-84.6-38.1-84.6-84.6V291.8c0-46.6,38.1-84.6,84.6-84.6h340.9
		c46.6,0,84.6,38.1,84.6,84.6v340.9C593.9,679.3,555.8,717.4,509.2,717.4z"/>
</g>
</svg>
