<?xml version="1.0" encoding="utf-8"?>
<!-- Generator: Adobe Illustrator 18.1.1, SVG Export Plug-In . SVG Version: 6.00 Build 0)  -->
<svg version="1.1" id="Layer_1" xmlns="http://www.w3.org/2000/svg" xmlns:xlink="http://www.w3.org/1999/xlink" x="0px" y="0px"
	 viewBox="0 143.3 595.3 556.2" enable-background="new 0 143.3 595.3 556.2" xml:space="preserve">
<path fill="#FFFFFF" d="M137,336c0-52.5,42.7-95.2,95.2-95.2h260.7v-15.9c0-44.9-36.7-81.6-81.6-81.6H82.6C37.7,143.3,1,180,1,224.9
	v328.7c0,44.9,36.7,81.6,81.6,81.6h59.6c-3.3-9.7-5.2-20.1-5.2-30.9V336z"/>
<path fill="#FFFFFF" d="M500.5,240.8h-7.6V268h7.6c37.5,0,68,30.5,68,68v268.3c0,37.5-30.5,68-68,68H232.2
	c-26.4,0-49.3-15.1-60.5-37.1h-29.5c12.9,37.4,48.4,64.3,90.1,64.3h268.3c52.5,0,95.2-42.7,95.2-95.2V336
	C595.7,283.5,553,240.8,500.5,240.8z"/>
<path fill="#FFFFFF" d="M164.2,604.3V336c0-37.5,30.5-68,68-68h260.7v-27.2H232.2c-52.5,0-95.2,42.7-95.2,95.2v268.3
	c0,10.8,1.8,21.2,5.2,30.9h29.5C166.9,626,164.2,615.5,164.2,604.3z"/>
</svg>
