<?xml version="1.0" encoding="utf-8"?>
<!-- Generator: Adobe Illustrator 18.1.1, SVG Export Plug-In . SVG Version: 6.00 Build 0)  -->
<svg version="1.1" id="Layer_1" xmlns="http://www.w3.org/2000/svg" xmlns:xlink="http://www.w3.org/1999/xlink" x="0px" y="0px"
	 viewBox="0 258.3 595.3 458.8" enable-background="new 0 258.3 595.3 458.8" xml:space="preserve">
<g>
	<path fill="#FFFFFF" d="M0,258.3h36.5c28.1,0,48.3,6.7,60.7,20.1c12.4,13.4,18.5,35.3,18.5,65.7c0,30.5-6.1,52.5-18.5,66
		c-12.4,13.5-32.6,20.2-60.7,20.2H0C0,430.4,0,258.3,0,258.3z M34.1,288.9v110.8h9.3c13.3,0,22.9-4.2,28.5-12.6
		c5.7-8.4,8.5-22.7,8.5-42.9c0-20.1-2.8-34.3-8.5-42.6c-5.7-8.3-15.2-12.6-28.5-12.6h-9.3V288.9z"/>
	<path fill="#FFFFFF" d="M270.7,430.4H163.4V258.3h107.2v30h-73.1v37.1h66.2v30h-66.2v45.1h73.2V430.4z"/>
	<path fill="#FFFFFF" d="M313.8,258.3h40.6l20.5,75.5l20.4-75.5h40.8v172.1h-29.4V292.6l-18.2,75.3h-27.1l-18.4-75.3v137.9h-29.3
		L313.8,258.3L313.8,258.3z"/>
	<path fill="#FFFFFF" d="M474.3,344.6c0-29.5,5.1-51.7,15.3-66.8c10.2-15.1,25.2-22.6,45.1-22.6c20,0,35.1,7.5,45.2,22.6
		c10.2,15.1,15.3,37.3,15.3,66.8c0,29.4-5.1,51.6-15.3,66.7c-10.2,15.1-25.2,22.6-45.2,22.6c-19.9,0-35-7.5-45.1-22.6
		C479.5,396.1,474.3,373.9,474.3,344.6z M534.8,285.7c-8.6,0-15,4.6-19.1,13.9c-4,9.3-6,24.3-6,44.9c0,20.6,2,35.5,6,44.8
		c4,9.3,10.3,13.9,19.1,13.9s15.1-4.6,19.2-13.9c4-9.3,6-24.2,6-44.8c0-20.6-2-35.6-6-44.9C550,290.4,543.5,285.7,534.8,285.7z"/>
	<path fill="#FFFFFF" d="M154.7,627.9c0-29.4,5.1-51.7,15.3-66.8c10.2-15.1,25.2-22.6,45.1-22.6c20,0,35.1,7.5,45.2,22.6
		c10.2,15.1,15.3,37.3,15.3,66.8c0,29.4-5.1,51.6-15.3,66.7c-10.2,15.1-25.2,22.6-45.2,22.6c-19.9,0-35-7.5-45.1-22.6
		C159.8,679.4,154.7,657.2,154.7,627.9z M215.1,569c-8.6,0-15,4.6-19.1,13.9c-4,9.3-6,24.3-6,44.9s2,35.5,6,44.8
		c4,9.3,10.3,13.9,19.1,13.9c8.7,0,15.1-4.6,19.2-13.9c4-9.3,6-24.2,6-44.8c0-20.6-2-35.6-6-44.9C230.2,573.7,223.8,569,215.1,569z"
		/>
	<path fill="#FFFFFF" d="M317.7,541.6h36.6l47.9,125.1V541.6h30v172.1h-36.4l-48.1-125.1v125.1h-30V541.6z"/>
</g>
</svg>
