<?xml version="1.0" encoding="utf-8"?>
<!-- Generator: Adobe Illustrator 18.1.1, SVG Export Plug-In . SVG Version: 6.00 Build 0)  -->
<svg version="1.1" id="Layer_1" xmlns="http://www.w3.org/2000/svg" xmlns:xlink="http://www.w3.org/1999/xlink" x="0px" y="0px"
	 viewBox="0 222.8 595.3 457.9" enable-background="new 0 222.8 595.3 457.9" xml:space="preserve">
<g>
	<path fill="#FFFFFF" d="M2.4,225.8h36.1c27.9,0,48,6.7,60.3,20c12.3,13.3,18.4,35,18.4,65.2c0,30.3-6.1,52.1-18.4,65.4
		c-12.3,13.3-32.4,20.1-60.3,20.1H2.4V225.8z M36.2,256.2v109.9h9.2c13.2,0,22.7-4.2,28.3-12.5c5.6-8.3,8.4-22.5,8.4-42.6
		c0-19.9-2.8-34-8.4-42.3c-5.6-8.3-15.1-12.5-28.3-12.5H36.2z"/>
	<path fill="#FFFFFF" d="M270.9,396.4H164.5V225.8h106.3v29.7h-72.6v36.8H264V322h-65.7v44.7h72.6L270.9,396.4L270.9,396.4z"/>
	<path fill="#FFFFFF" d="M313.7,225.8h40.2l20.3,74.9l20.2-74.9h40.5v170.6h-29.1V259.8l-18,74.7H361l-18.3-74.7v136.7h-29.1V225.8
		H313.7z"/>
	<path fill="#FFFFFF" d="M472.9,311.3c0-29.2,5-51.2,15.1-66.1c10.1-14.9,25-22.4,44.8-22.4s34.8,7.5,44.9,22.4
		c10.1,14.9,15.1,37,15.1,66.1s-5,51.1-15.1,66c-10.1,14.9-25,22.4-44.9,22.4c-19.7,0-34.7-7.5-44.8-22.4
		C477.9,362.5,472.9,340.4,472.9,311.3z M532.8,253c-8.6,0-14.9,4.6-18.9,13.7c-4,9.2-5.9,24.1-5.9,44.5c0,20.4,2,35.2,5.9,44.4
		c4,9.2,10.2,13.7,18.9,13.7c8.6,0,15-4.6,19-13.7c4-9.2,5.9-24,5.9-44.4c0-20.5-2-35.3-5.9-44.5C547.8,257.6,541.5,253,532.8,253z"
		/>
	<path fill="#FFFFFF" d="M76.6,592.3c0-29.2,5-51.2,15.1-66.1c10.1-15,25-22.4,44.8-22.4s34.8,7.5,44.9,22.4
		c10.1,14.9,15.1,37,15.1,66.1c0,29.2-5,51.1-15.1,66c-10.1,15-25,22.4-44.9,22.4c-19.7,0-34.7-7.5-44.8-22.4
		C81.6,643.4,76.6,621.4,76.6,592.3z M136.5,533.9c-8.6,0-14.9,4.6-18.9,13.7c-4,9.2-5.9,24.1-5.9,44.5s2,35.2,5.9,44.5
		c4,9.2,10.2,13.7,18.9,13.7c8.6,0,15-4.6,19-13.7c4-9.2,5.9-24,5.9-44.5c0-20.5-2-35.3-5.9-44.5
		C151.5,538.5,145.1,533.9,136.5,533.9z"/>
	<path fill="#FFFFFF" d="M351.7,536.4h-72.6v36.8h66.1v29.7h-66.1v74.5h-33.7V506.7h106.3V536.4z"/>
	<path fill="#FFFFFF" d="M510.2,536.4h-72.6v36.8h66.1v29.7h-66.1v74.5h-33.7V506.7h106.3V536.4z"/>
</g>
</svg>
