<?xml version="1.0" encoding="utf-8"?>
<!-- Generator: Adobe Illustrator 18.1.1, SVG Export Plug-In . SVG Version: 6.00 Build 0)  -->
<svg version="1.1" id="Layer_1" xmlns="http://www.w3.org/2000/svg" xmlns:xlink="http://www.w3.org/1999/xlink" x="0px" y="0px"
	 viewBox="0 213.6 595.3 593" enable-background="new 0 213.6 595.3 593" xml:space="preserve">
<path fill="#FFFFFF" d="M297.4,213.6c-163.5,0-296.6,133-296.6,296.5s133.1,296.6,296.6,296.6s296.5-133,296.5-296.5
	S461,213.6,297.4,213.6z M27.2,523.1h87.5c1.5,53.1,11.5,102.7,28,145H77.9C48.2,626.9,29.8,577,27.2,523.1z M284.4,311h-93.1
	c25-39.6,57.4-65.4,93.1-70.5V311z M284.4,336.9v160.2H140.7c1.7-60.8,15-116.3,36.3-160.2H284.4L284.4,336.9z M310.4,336.9h107.5
	c21.2,43.9,34.6,99.4,36.3,160.2H310.4V336.9z M310.4,311v-70.4c35.8,5.1,68.2,30.9,93.1,70.5L310.4,311L310.4,311z M392.4,256.8
	c32.8,12.4,62.6,30.9,88,54.2h-47.6C421.1,290,407.5,271.7,392.4,256.8z M162,311h-47.6c25.4-23.3,55.2-41.8,88-54.2
	C187.4,271.7,173.8,290,162,311z M149,336.9c-20.2,45.4-32.8,100.6-34.3,160.2H27.2c2.9-60.8,25.9-116.3,62.5-160.2H149L149,336.9z
	 M140.7,523.1h143.8v145H170.1C152.9,626.9,142.2,577,140.7,523.1z M284.4,694.1v85.6c-40.2-5.7-76.1-37.5-101.9-85.6H284.4z
	 M310.4,779.7v-85.6h101.9C386.4,742.2,350.6,774,310.4,779.7z M310.4,668.1v-145h143.8c-1.5,54-12.2,103.8-29.5,145H310.4z
	 M480.1,523.1h87.5c-2.5,54-21,103.8-50.8,145h-64.8C468.6,625.7,478.7,576.2,480.1,523.1z M480.1,497.1
	c-1.6-59.6-14.1-114.7-34.3-160.2h59.3c36.6,43.9,59.6,99.4,62.5,160.2H480.1z M99.3,694.1h54.9c13.4,27.4,29.9,51,48.3,69.4
	C162.8,748.5,127.6,724.5,99.3,694.1z M392.4,763.5c18.6-18.4,34.9-41.9,48.3-69.4h54.9C467.3,724.5,432.1,748.5,392.4,763.5z"/>
</svg>
