<?xml version="1.0" encoding="utf-8"?>
<!-- Generator: Adobe Illustrator 18.1.1, SVG Export Plug-In . SVG Version: 6.00 Build 0)  -->
<svg version="1.1" id="Layer_1" xmlns="http://www.w3.org/2000/svg" xmlns:xlink="http://www.w3.org/1999/xlink" x="0px" y="0px"
	 viewBox="0 260.1 595.3 548.3" enable-background="new 0 260.1 595.3 548.3" xml:space="preserve">
<path fill="#FFFFFF" d="M0,260.1v548.3h593.4V260.1H0z M567.5,389.7H448.8V286h118.7V389.7z M307.9,389.7V286h115.1v103.7H307.9z
	 M422.9,415.5v110H307.9v-110H422.9z M282,389.7H166.9V286H282L282,389.7L282,389.7z M282,415.5v110H166.9v-110H282z M140.9,525.5
	H25.9v-110h115.1L140.9,525.5L140.9,525.5z M140.9,551.5v110H25.9v-110H140.9z M166.9,551.5H282v110H166.9V551.5z M282,687.4v95
	H166.9v-95H282z M307.9,687.4h115.1v95H307.9V687.4z M307.9,661.5v-110h115.1v110H307.9z M448.8,551.5h118.7v110H448.8L448.8,551.5
	L448.8,551.5z M448.8,525.5v-110h118.7v110H448.8z M140.9,286v103.7H25.9V286H140.9z M25.9,687.4h115.1v95H25.9V687.4z M448.8,782.5
	v-95h118.7v95H448.8z"/>
</svg>
