<?xml version="1.0" encoding="utf-8"?>
<!-- Generator: Adobe Illustrator 18.1.1, SVG Export Plug-In . SVG Version: 6.00 Build 0)  -->
<svg version="1.1" id="Layer_1" xmlns="http://www.w3.org/2000/svg" xmlns:xlink="http://www.w3.org/1999/xlink" x="0px" y="0px"
	 viewBox="0 113.3 447.2 523.4" enable-background="new 0 113.3 447.2 523.4" xml:space="preserve">
<g>
	<g>
		<circle fill="#FFFFFF" cx="212.2" cy="325.4" r="186.2"/>
		<path fill="#619B7F" d="M212.2,537.6C95.2,537.6,0,442.4,0,325.4s95.2-212.2,212.2-212.2s212.2,95.2,212.2,212.2
			S329.2,537.6,212.2,537.6z M212.2,165.2C123.8,165.2,52,237.1,52,325.4c0,88.3,71.9,160.2,160.2,160.2
			c88.3,0,160.2-71.9,160.2-160.2C372.4,237.1,300.5,165.2,212.2,165.2z"/>
	</g>
	<g>
		<path fill="#619B7F" d="M420,635c-7.8,0-15.5-3.5-20.6-10.2L298.6,493.5c-8.7-11.4-6.6-27.7,4.8-36.4c11.4-8.7,27.7-6.6,36.4,4.8
			l100.8,131.3c8.7,11.4,6.6,27.7-4.8,36.4C431.1,633.2,425.5,635,420,635z"/>
	</g>
	<g>
		<rect x="128.4" y="305.9" fill="#619B7F" width="167.5" height="39"/>
	</g>
</g>
</svg>
