<?xml version="1.0" encoding="utf-8"?>
<!-- Generator: Adobe Illustrator 18.1.1, SVG Export Plug-In . SVG Version: 6.00 Build 0)  -->
<svg version="1.1" id="Layer_1" xmlns="http://www.w3.org/2000/svg" xmlns:xlink="http://www.w3.org/1999/xlink" x="0px" y="0px"
	 viewBox="0 113.3 447.2 523.4" enable-background="new 0 113.3 447.2 523.4" xml:space="preserve">
<g>
	<g>
		<circle fill="#FFFFFF" cx="212.7" cy="326" r="186.7"/>
		<path fill="#619B7F" d="M212.7,538.7C95.4,538.7,0,443.3,0,326s95.4-212.7,212.7-212.7c117.3,0,212.7,95.4,212.7,212.7
			S330.1,538.7,212.7,538.7z M212.7,165.4c-88.6,0-160.6,72.1-160.6,160.6c0,88.6,72.1,160.6,160.6,160.6S373.4,414.6,373.4,326
			C373.4,237.4,301.3,165.4,212.7,165.4z"/>
	</g>
	<g>
		<path fill="#619B7F" d="M421.2,636.4c-7.8,0-15.5-3.5-20.7-10.2L299.4,494.6c-8.8-11.4-6.6-27.8,4.8-36.5
			c11.4-8.8,27.8-6.7,36.5,4.8l101.1,131.7c8.8,11.4,6.6,27.8-4.8,36.5C432.3,634.7,426.7,636.4,421.2,636.4z"/>
	</g>
	<g>
		<rect x="193.2" y="242" fill="#619B7F" width="39.1" height="168"/>
	</g>
	<g>
		<rect x="128.8" y="306.5" fill="#619B7F" width="168" height="39.1"/>
	</g>
</g>
</svg>
