<svg xmlns="http://www.w3.org/2000/svg" viewBox="0 0 120 120"><radialGradient id="a1" cx="60" cy="60.004" r="60.004" gradientUnits="userSpaceOnUse"><stop offset="0" stop-color="#047E7D"/><stop offset="1" stop-color="#036564"/></radialGradient><path fill="url(#a1)" d="M-.004 0h120.008v120.008H-.004z"/><path d="M49.77 82.153v1.884c-1.56 0-2.825-1.265-2.825-2.826v-2.825c0-1.56 1.265-2.826 2.826-2.826v1.883c-.52 0-.94.422-.94.942v2.826c0 .52.42.943.94.943zm-.94-15.246c-.05-.017-.102-.026-.15-.046.056-.093.098-.194.15-.29v.337zm0-8.13v.336c-.052-.096-.094-.197-.15-.29.048-.02.1-.03.15-.047zm0-6.768v.49c-.577-.403-1.19-.753-1.828-1.06.264-1.29 1.403-2.257 2.77-2.257v1.884c-.52 0-.943.422-.943.942zm-1.885-7.537v-2.826c0-1.56 1.265-2.826 2.826-2.826v1.885c-.52 0-.94.422-.94.942v2.826c0 .52.42.942.94.942V47.3c-1.56 0-2.825-1.266-2.825-2.827zm-4.71 39.564c-1.56 0-2.826-1.265-2.826-2.826v-2.825c0-.753.298-1.433.778-1.94.365.03.732.056 1.105.056.468 0 .93-.025 1.385-.073.008 0 .016-.003.024-.004.448-.048.888-.118 1.322-.21.628.52 1.037 1.294 1.037 2.172v2.826c0 1.56-1.264 2.827-2.825 2.827zm.942-5.652c0-.52-.422-.942-.942-.942s-.942.422-.942.942v2.826c0 .52.422.943.942.943s.942-.422.942-.942v-2.825zm-.942-11.304c-1.56 0-2.826-1.264-2.826-2.825V61.43c0-1.562 1.264-2.827 2.825-2.827 1.56 0 2.826 1.265 2.826 2.826v2.825c0 1.56-1.264 2.826-2.825 2.826zm.942-5.65c0-.52-.422-.943-.942-.943s-.942.422-.942.942v2.825c0 .52.422.942.942.942s.942-.422.942-.942V61.43zm-.05-11.163c-.063-.01-.124-.02-.186-.028-.54-.07-1.087-.115-1.647-.115-.405 0-.805.025-1.2.06.517-.607 1.28-1.002 2.142-1.002 1.035 0 1.93.562 2.422 1.392-.5-.132-1.01-.235-1.53-.308zM41.292 38.82h1.884v8.48h-1.884v-8.48zm-4.71 25.52v-2.998c.357-.127.648-.39.807-.732.08.26.135.532.135.818v2.826c0 .287-.056.558-.135.818-.16-.34-.45-.604-.807-.73zM34.7 47.3c-1.562 0-2.827-1.266-2.827-2.827v-2.826c0-1.56 1.265-2.826 2.826-2.826s2.825 1.266 2.825 2.827v2.826c0 1.56-1.265 2.826-2.826 2.826zm.94-5.653c0-.52-.42-.942-.94-.942s-.943.422-.943.942v2.826c0 .52.422.942.942.942s.94-.422.94-.942v-2.826zm-1.847 17.118c-.022.1-.036.203-.036.31V66.608c0 .107.014.21.036.31-1.114-.38-1.92-1.423-1.92-2.665V61.43c0-1.243.807-2.286 1.92-2.665zm2.66 16.807c.043.017.087.03.13.047v8.416H34.7v-8.478h1.717l.036.014zM33.757 52.5v-3.317h1.884v2.228c-.658.315-1.29.674-1.883 1.09zm14.13 10.342c0 .965-.23 1.874-.627 2.685-.195-.384-.315-.812-.315-1.272V61.43c0-.46.12-.89.315-1.273.398.81.627 1.72.627 2.685z" fill-rule="evenodd" clip-rule="evenodd" fill="#FFF"/><path d="M49.364 60.422c-.36-1.2-.967-2.336-1.915-3.284-3.128-3.127-8.198-3.127-11.324 0-3.127 3.127-3.127 8.197 0 11.323 3.127 3.128 8.197 3.128 11.323 0 .93-.93 1.534-2.044 1.897-3.22.124.156.265.296.424.416V70.1c-.108.12-.208.244-.323.36-3.657 3.656-9.273 4.14-13.462 1.472l-.525.525c-.156.156-.333.276-.516.38-.102.183-.222.36-.38.515l-.31.312s-1.02.354-2.353-.978c-1.33-1.332-.998-2.33-.998-2.33l.333-.334c.156-.156.332-.277.516-.38.104-.183.224-.36.38-.515l.525-.525c-2.668-4.19-2.185-9.805 1.473-13.463 4.23-4.23 11.09-4.23 15.32 0 .115.114.215.238.324.357v4.528c-.153.116-.288.25-.408.397zM32.858 75.018l.014.028-8.298 8.298c-.92.92-2.41.92-3.33 0s-.92-2.41 0-3.33l8.31-8.31c-.036.288-.058 1.242 1.036 2.336 1.31 1.31 2.268.978 2.268.978zM98.754 38.82v.66L67.157 70.97v.05L54.015 84.037h-.47V38.82h12.24V54.69l-.03 2.06 17.927-17.926h15.072zM82.71 60.517l.413.412 10.92 10.92 4.717-4.752v16.94H81.74l4.827-4.828-11.274-11.274 7.418-7.418z" fill-rule="evenodd" clip-rule="evenodd" fill="#FFF"/></svg>