<svg xmlns="http://www.w3.org/2000/svg" viewBox="0 0 119.992 119.992"><radialGradient id="a" cx="59.996" cy="59.996" r="59.996" gradientUnits="userSpaceOnUse"><stop offset="0" stop-color="#F8BF21"/><stop offset="1" stop-color="#F5AA1A"/></radialGradient><path fill="url(#a)" d="M0 0h119.992v119.992H0z"/><path d="M46.05 65.33c.21-.015.423-.016.64.013.25.034.48.128.71.217v1.997c-.19-.14-.38-.24-.56-.265-1.05-.143-3.576.315-3.864.69-.01.014-.01.018-.02.03l-.038.008c-.208.235-.37.503-.414.82-.01.066-.024.112-.037.17 1.523 1.01 3.334 1.844 4.932 1.844v1.934c-.316-.008-.614-.023-.942-.023-2.765 0-7.852-3.03-9.117-5.53-1.264-2.5-1.675-3.47-1.675-3.47s-3.323-1.91-3.323-5.175c0-3.264 1.03-4.647 1.03-4.647s-.26-1.43-.183-3.48c.01-.085.034-.162.034-.255 0-.19.005-.386.015-.59.1-1.278.34-2.728.837-4.204.83-2.46 2.318-3.36 3.456-3.678 2.313-.008 2.367-.087 2.367-.087s.787-1.974 3.733-2.583c.766-.073 1.6-.12 2.5-.14l1.266.008V52.12c-.323-.088-.666-.183-1.06-.294-3.37-.95-4.672-3.538-5.15-4.995-.672.315-1.435.74-1.997 1.26-1.235 1.148-2.117 5.354-2.117 5.354s-.088.118-1.06.853c-.97.735-1.675 1.853-1.675 4.03s3.236 4.205 3.236 4.205.794 2.147 1.676 3.56c.19.303.535.7.98 1.132.375.197.97.49.97.49s2.682-2.692 4.576-2.434c.107.013.194.03.272.05zm-7.22-7.64c.09-.228.714-1.657 2.012-1.805.162 0 .32.003.477.008.11-.016.218-.038.344-.038.37 0 .715-.013 1.04-.03h2.27c.023.026.043.052.038.09h.18s.295.38.295.587c0 .127-.51.26-1 .333.046.138.088.28.088.432 0 .78-.632 1.412-1.412 1.412-.083 0-.156-.035-.235-.048-.077.02-.152.047-.235.047-.52 0-.94-.422-.94-.942 0-.078.033-.142.05-.213-.016-.086-.05-.166-.05-.257 0-.125.037-.237.07-.352-.17.002-.467.04-.795.098-.425.1-1.18.294-1.623.514-.077.053-.145.095-.202.124-.003.007-.007.014-.012.02l-.144.067.002-.014c-.178.104-.266.16-.266.16s.018-.085.048-.197zm6.893 17.693H47.4v8.705H25.77c-.463-.643-.928-1.6-.928-2.853 0-2.5.882-4.53 5.647-6.97 3.62-1.855 6.042-2.823 7-3.183 1.27 1.392 4.382 4.3 8.233 4.3zM96.336 38.915v.657L64.768 71.035v.05L51.638 84.09h-.468V38.914h12.227v15.852l-.03 2.06 17.91-17.91h15.06zM80.308 60.59l.412.412 10.91 10.91 4.713-4.748v16.923H79.34l4.82-4.822L72.898 68l7.41-7.41z" fill-rule="evenodd" clip-rule="evenodd" fill="#2C2C2C"/></svg>