<svg xmlns="http://www.w3.org/2000/svg" viewBox="0 0 119.988 119.984"><radialGradient id="a" cx="59.996" cy="59.988" r="59.996" gradientUnits="userSpaceOnUse"><stop offset="0" stop-color="#BE0000"/><stop offset="1" stop-color="#A80000"/></radialGradient><path fill="url(#a)" d="M0-.008h119.992v119.992H0z"/><path d="M46.478 45.743c-7.47 1.332-13.145 7.846-13.145 15.698 0 7.853 5.675 14.367 13.145 15.7v6.638c-4.426-.555-8.457-2.38-11.702-5.117-4.285 3.368-9.922 2.292-9.922 2.292s.117-.06 1.995-1.643c1.877-1.585 2.64-6.515 2.64-6.515l.2-.27c-1.855-3.274-2.928-7.05-2.928-11.085 0-11.49 8.604-20.95 19.717-22.34v6.643zM95.3 38.907v.655l-31.493 31.39v.05l-13.1 12.972h-.466V38.907h12.2v15.815l-.03 2.054 17.87-17.868H95.3zM79.31 60.53l.41.412 10.886 10.885 4.7-4.737v16.883H78.344l4.81-4.81-11.236-11.238 7.393-7.394z" fill-rule="evenodd" clip-rule="evenodd" fill="#FFF"/></svg>