<svg xmlns="http://www.w3.org/2000/svg" viewBox="0 0 119.992 119.992"><radialGradient id="a" cx="59.996" cy="59.996" r="59.996" gradientUnits="userSpaceOnUse"><stop offset="0" stop-color="#D2FF82"/><stop offset="1" stop-color="#C3FF68"/></radialGradient><path fill="url(#a)" d="M0 0h119.992v119.992H0z"/><path d="M51.642 65.195l-27.777-9.25v8.6c.273.16.5.38.664.65.01.02.02.043.033.063.06.108.108.22.146.34.01.037.023.072.033.11.037.146.062.297.062.455 0 .158-.025.31-.062.456-.01.036-.022.07-.034.107-.04.12-.087.233-.147.34-.012.022-.02.043-.034.063-.164.27-.392.492-.665.65v.366l1.88 7.302v.11h-5.64v-.58l1.83-6.936h.05v-.26c-.272-.16-.5-.382-.663-.652l-.034-.062c-.06-.108-.108-.22-.146-.34-.012-.037-.024-.072-.034-.11-.037-.146-.062-.297-.062-.455 0-.158.025-.31.062-.456.01-.037.022-.072.034-.108.038-.12.086-.234.146-.342.012-.02.02-.042.034-.062.163-.27.39-.492.664-.65v-9.228l-3.758-1.252 33.385-10.453h.44v21.444l-.41.138zm.41 2.68V79.29c-4.554-.004-17.847-1.33-17.847-8.457 0-.15-.002-.278-.004-.41v-8.218l17.442 5.81.41-.14zM100.912 38.915v.656L69.395 70.984v.05l-13.11 12.983h-.466v-45.1h12.206V54.74l-.03 2.055L85.88 38.915h15.032zM84.91 60.555l.41.41L96.215 71.86l4.704-4.74v16.895H83.942l4.815-4.815L77.51 67.955l7.4-7.4z" fill-rule="evenodd" clip-rule="evenodd" fill="#2F2F30"/></svg>