<svg xmlns="http://www.w3.org/2000/svg" viewBox="0 0 119.992 119.992"><radialGradient id="a" cx="59.996" cy="59.996" r="59.996" gradientUnits="userSpaceOnUse"><stop offset="0" stop-color="#DC4938"/><stop offset="1" stop-color="#D03A2D"/></radialGradient><path fill="url(#a)" d="M0 0h119.992v119.992H0z"/><path d="M45.444 84.053s-8.078-1.058-13.924-10.428c-5.846-9.37-5.757-16.685-5.757-20.71v-7.343s7.843.264 13.13-2.38 5.7-4.288 5.7-4.288h.91v2.778c-.354.427-1.49 1.61-4.728 3.95-4.23 3.054-12.25 2.643-12.25 2.643s.06 2.203.06 6.198c0 3.995-.176 9.753 5.523 17.92 5.7 8.165 11.368 8.84 11.368 8.84l.03-.013v2.765c-.042.044-.062.068-.062.068zm-8.372-13.66c-3.936-5.815-4.73-12.66-4.73-15.51 0-2.848.03-2.878.03-2.878s6.52-.588 10.4-3.378c1.254-.903 2.124-1.58 2.73-2.084v30.883l-.028.018s-4.466-1.234-8.402-7.05zM94.383 38.904v.656l-31.53 31.426v.05L49.737 84.024h-.468v-45.12h12.213V54.737l-.03 2.056 17.89-17.89h15.04zm-16.01 21.65l.412.41 10.898 10.898 4.706-4.743V84.02H77.404l4.817-4.817-11.25-11.25 7.402-7.402z" fill-rule="evenodd" clip-rule="evenodd" fill="#FFF"/></svg>