<svg xmlns="http://www.w3.org/2000/svg" viewBox="0 0 119.992 119.992"><radialGradient id="a" cx="59.996" cy="59.996" r="59.996" gradientUnits="userSpaceOnUse"><stop offset="0" stop-color="#737457"/><stop offset="1" stop-color="#66664D"/></radialGradient><path fill="url(#a)" d="M0 0h119.992v119.992H0z"/><path d="M100.64 38.964v.655L69.174 70.976v.05L56.09 83.987h-.468V38.964H67.81V54.762l-.03 2.053 17.85-17.85h15.01zM84.663 60.567l.41.41L95.95 71.852l4.695-4.733v16.866H83.697l4.806-4.806-11.226-11.227 7.387-7.386z" fill-rule="evenodd" clip-rule="evenodd" fill="#FFF"/><g fill="#FFF"><path d="M37.002 51.167h14.92v2.814h-14.92zM37.002 57.616h14.92v2.814h-14.92zM37.002 64.387h14.92V67.2h-14.92zM37.002 70.806h14.92v2.814h-14.92z"/><path d="M48.952 38.72c-1.518 0-2.24 1.442-2.82 2.6-.192.385-.703 1.405-.926 1.405-.212-.057-.623-.897-.82-1.3-.562-1.143-1.33-2.706-3.015-2.706-1.705 0-2.378 1.565-2.87 2.708-.18.42-.556 1.297-.763 1.297-.256 0-.676-.942-.902-1.448-.51-1.14-1.142-2.558-2.615-2.558-1.417 0-2.405 1.74-2.405 3.302v37.47c0 .01.008 1.002-.763 1.797-.686.706-1.797 1.065-3.302 1.065-3.995 0-4.14-2.526-4.143-2.814V42.02H21.73v37.51c-.002.177.02 1.757 1.322 3.072 1.07 1.08 2.65 1.63 4.697 1.63H51.92v-1.877H32.597c1.112-1.324 1.094-2.85 1.092-2.892V42.02c0-.737.146-1.142.556-1.142.47 0 .648.658.873 1.164.508 1.14 1.14 2.56 2.614 2.56 1.442 0 2.022-1.35 2.488-2.433.41-.952.71-1.575 1.147-1.575.48 0 .853.687 1.33 1.656.513 1.048 1.152 2.35 2.51 2.35 1.377 0 2.054-1.352 2.6-2.44.33-.66.783-1.556 1.142-1.565.405-.01 2.4 2.072 2.996 2.658V40.98c-.14-.35-2.093-2.26-2.996-2.26z"/><path d="M26.81 41.905h1.877v37.168H26.81z"/></g></svg>