<?xml version="1.0" encoding="utf-8"?>
<!-- Generator: Adobe Illustrator 19.0.0, SVG Export Plug-In . SVG Version: 6.00 Build 0)  -->
<!DOCTYPE svg PUBLIC "-//W3C//DTD SVG 1.1//EN" "http://www.w3.org/Graphics/SVG/1.1/DTD/svg11.dtd">
<svg version="1.1" id="Layer_1" xmlns="http://www.w3.org/2000/svg" xmlns:xlink="http://www.w3.org/1999/xlink" x="0px" y="0px"
	 viewBox="0 0 360.5 82.9" enable-background="new 0 0 360.5 82.9" xml:space="preserve">
<g>
	<path fill="#006D5C" d="M87.9,65.3h-9L64.7,35L50.6,65.3h-9l23.2-49.7L87.9,65.3z M179,26.5v-9h-19.4h-4.5h-4.5v47.9h4.5h4.5H179
		v-9h-19.4V26.5H179z M13.2,17.5h-9v47.9h9V17.5z M24.1,41.4l16.8-23.9H30.3L13.6,41.4l16.8,23.9h10.6L24.1,41.4z M259.8,17.5h-9
		v47.9h9V17.5z M270.7,41.4l16.8-23.9h-10.6l-16.8,23.9l16.8,23.9h10.6L270.7,41.4z M209.7,46.8c4.5-3,7.1-7.8,7.1-13.1
		c0-5.9-2.6-10.7-7.4-13.5c-3.2-1.9-7-2.7-12.2-2.7H186l0,0v47.9h9V41.4V26.5h2.3c6.3,0,10.5,1.5,10.5,7.2c0,5.2-5.2,7.5-11.1,7.7
		c-0.2,0-0.9,0-1.3,0v0l16.8,23.9h10.6L209.7,46.8z M138.2,20.2c-3.2-1.9-7-2.7-12.2-2.7h-11.3l0,0v47.9h9V41.4V26.5h2.3
		c6.3,0,10.5,1.5,10.5,7.2c0,5.2-5.2,7.5-11.1,7.7c-0.2,0-0.9,0-1.3,0v0l6,8.6c3-0.5,5.6-1.5,7.9-2.8c0.2-0.1,0.3-0.2,0.5-0.3
		c4.5-3,7.1-7.8,7.1-13.1C145.6,27.7,143,23,138.2,20.2z M319,17.5l-11.1,19.2l-11.1-19.2h-9l20.1,34.8L328,17.5H319z M87.2,72
		l3.7,8c17.5-13.4,20.7-28.3,9.3-44.4c-9-12.7,0.9-24,3.9-26.9l-6.7-5.4C93,8.1,81.5,23.2,91.6,38.3C101.3,52.9,100.3,60.8,87.2,72z
		 M223.2,72l3.7,8c17.5-13.4,20.7-28.3,9.3-44.4c-9-12.7,0.9-24,3.9-26.9l-6.7-5.4c-4.4,4.8-15.9,19.8-5.8,34.9
		C237.3,52.9,236.3,60.8,223.2,72z"/>
</g>
<path fill="#FF0000" d="M330,65.3v-4.9h25.7v4.9H330z M355.8,38.7v4.9H354c1.6,0.9,2.4,2.9,2.4,4.9c0,5.2-4.1,8.3-8.8,8.3
	c-5.4,0-8.8-3.9-8.8-8.3c0-2.7,1.3-4.2,2.3-4.9h-1.8v-4.9H355.8z M347.6,51.9c1.5,0,4.1-1.1,4.1-4.1c0-1.8-0.8-2.8-1.8-3.5
	c-0.7-0.4-1.4-0.6-2.1-0.7c-0.7-0.1-1.5,0.1-2.2,0.4c-1.1,0.5-2.3,1.7-2.3,3.8C343.3,50.6,345.7,51.9,347.6,51.9L347.6,51.9z
	 M330,35.3v-4.9h9.3h1.3c-1.9-1.8-1.9-4.1-1.9-4.8c0-3.5,2.5-8.1,8.7-8.1c6,0,8.9,4.1,8.9,8.3c0,2.3-1.1,4.1-2.3,4.8h1.8v4.7H330z
	 M347.5,22.4c-2.1,0-4.2,1.6-4.2,4c0,2.6,2.1,4.1,4.2,4.1c2.3,0,4.3-1.5,4.3-4C351.7,24,349.7,22.4,347.5,22.4L347.5,22.4z
	 M58.4,49.3l6.3,12.6L71,49.3H58.4z M172.6,35.1l-12.6,6.3l12.6,6.3V35.1z M314.2,65.3l-6.3-12.6l-6.3,12.6H314.2z"/>
</svg>
