<?xml version="1.0" encoding="utf-8"?>
<!-- Generator: Adobe Illustrator 18.1.1, SVG Export Plug-In . SVG Version: 6.00 Build 0)  -->
<svg version="1.1" id="Layer_1" xmlns="http://www.w3.org/2000/svg" xmlns:xlink="http://www.w3.org/1999/xlink" x="0px" y="0px"
	 viewBox="96.4 156.2 571.5 440.4" enable-background="new 96.4 156.2 571.5 440.4" xml:space="preserve">
<g>
	<path fill="#619B7F" d="M96.4,156.2h35c27,0,46.4,6.4,58.3,19.3c11.9,12.9,17.8,33.9,17.8,63.1c0,29.3-5.9,50.4-17.8,63.4
		c-11.9,13-31.3,19.4-58.3,19.4h-35V156.2z M129.1,185.6V292h8.9c12.8,0,22-4,27.4-12.1c5.5-8.1,8.2-21.8,8.2-41.2
		c0-19.3-2.7-32.9-8.2-40.9c-5.5-8-14.6-12.1-27.4-12.1H129.1z"/>
	<path fill="#619B7F" d="M356.3,321.4H253.3V156.2h102.9V185H286v35.6h63.6v28.8H286v43.3h70.3V321.4z"/>
	<path fill="#619B7F" d="M397.7,156.2h39l19.7,72.5l19.6-72.5h39.2v165.2H487V189.1l-17.5,72.3h-26l-17.7-72.3v132.4h-28.1V156.2z"
		/>
	<path fill="#619B7F" d="M551.8,239c0-28.3,4.9-49.6,14.7-64.1c9.8-14.5,24.2-21.7,43.3-21.7c19.2,0,33.7,7.2,43.4,21.7
		c9.8,14.5,14.7,35.8,14.7,64.1c0,28.2-4.9,49.5-14.7,64c-9.8,14.5-24.2,21.7-43.4,21.7c-19.1,0-33.6-7.2-43.3-21.7
		C556.7,288.5,551.8,267.2,551.8,239z M609.8,182.5c-8.3,0-14.4,4.4-18.3,13.3c-3.8,8.9-5.8,23.3-5.8,43.1c0,19.8,1.9,34.1,5.8,43
		c3.8,8.9,9.9,13.3,18.3,13.3c8.4,0,14.5-4.4,18.4-13.3c3.8-8.9,5.8-23.2,5.8-43c0-19.8-1.9-34.2-5.8-43.1
		C624.4,187,618.2,182.5,609.8,182.5z"/>
	<path fill="#619B7F" d="M244.9,511c0-28.2,4.9-49.6,14.7-64.1c9.8-14.5,24.2-21.7,43.3-21.7c19.2,0,33.7,7.2,43.4,21.7
		c9.8,14.5,14.7,35.8,14.7,64.1c0,28.2-4.9,49.5-14.7,64c-9.8,14.5-24.2,21.7-43.4,21.7c-19.1,0-33.6-7.2-43.3-21.7
		C249.8,560.5,244.9,539.2,244.9,511z M302.9,454.5c-8.3,0-14.4,4.4-18.3,13.3c-3.8,8.9-5.8,23.3-5.8,43.1c0,19.8,1.9,34.1,5.8,43
		c3.8,8.9,9.9,13.3,18.3,13.3c8.4,0,14.5-4.4,18.4-13.3c3.8-8.9,5.8-23.2,5.8-43c0-19.8-1.9-34.2-5.8-43.1
		C317.4,459,311.3,454.5,302.9,454.5z"/>
	<path fill="#619B7F" d="M401.4,428.2h35.1l46,120.1V428.2h28.8v165.2h-34.9l-46.2-120.1v120.1h-28.8V428.2z"/>
</g>
</svg>
