<?xml version="1.0" encoding="utf-8"?>
<!-- Generator: Adobe Illustrator 18.1.1, SVG Export Plug-In . SVG Version: 6.00 Build 0)  -->
<svg version="1.1" id="Layer_1" xmlns="http://www.w3.org/2000/svg" xmlns:xlink="http://www.w3.org/1999/xlink" x="0px" y="0px"
	 viewBox="96.4 156.2 571.5 440.4" enable-background="new 96.4 156.2 571.5 440.4" xml:space="preserve">
<g>
	<path fill="#619B7F" d="M96.4,157.2h34.7c26.8,0,46.1,6.4,57.9,19.2c11.8,12.8,17.7,33.6,17.7,62.6c0,29.1-5.9,50-17.7,62.8
		c-11.8,12.8-31.1,19.3-57.9,19.3H96.4V157.2z M128.8,186.4v105.5h8.8c12.7,0,21.8-4,27.2-12c5.4-8,8.1-21.6,8.1-40.9
		c0-19.1-2.7-32.6-8.1-40.6c-5.4-8-14.5-12-27.2-12H128.8z"/>
	<path fill="#619B7F" d="M354.1,321H252V157.2h102.1v28.5h-69.7V221h63.1v28.5h-63.1v42.9h69.7V321z"/>
	<path fill="#619B7F" d="M395.2,157.2h38.6l19.5,71.9l19.4-71.9h38.9V321h-27.9V189.8l-17.3,71.7h-25.8l-17.6-71.7V321h-27.9V157.2z
		"/>
	<path fill="#619B7F" d="M548.1,239.3c0-28,4.8-49.2,14.5-63.5c9.7-14.3,24-21.5,43-21.5c19,0,33.4,7.2,43.1,21.5
		c9.7,14.3,14.5,35.5,14.5,63.5c0,28-4.8,49.1-14.5,63.4c-9.7,14.3-24,21.5-43.1,21.5c-18.9,0-33.3-7.2-43-21.5
		C552.9,288.4,548.1,267.2,548.1,239.3z M605.6,183.3c-8.3,0-14.3,4.4-18.1,13.2c-3.8,8.8-5.7,23.1-5.7,42.7
		c0,19.6,1.9,33.8,5.7,42.6c3.8,8.8,9.8,13.2,18.1,13.2c8.3,0,14.4-4.4,18.2-13.2c3.8-8.8,5.7-23,5.7-42.6c0-19.7-1.9-33.9-5.7-42.7
		C620,187.7,613.9,183.3,605.6,183.3z"/>
	<path fill="#619B7F" d="M167.6,509c0-28,4.8-49.2,14.5-63.5c9.7-14.4,24-21.5,43-21.5c19,0,33.4,7.2,43.1,21.5
		c9.7,14.3,14.5,35.5,14.5,63.5c0,28-4.8,49.1-14.5,63.4c-9.7,14.4-24,21.5-43.1,21.5c-18.9,0-33.3-7.2-43-21.5
		C172.4,558.1,167.6,537,167.6,509z M225.1,453c-8.3,0-14.3,4.4-18.1,13.2c-3.8,8.8-5.7,23.1-5.7,42.7c0,19.6,1.9,33.8,5.7,42.7
		c3.8,8.8,9.8,13.2,18.1,13.2c8.3,0,14.4-4.4,18.2-13.2c3.8-8.8,5.7-23,5.7-42.7c0-19.7-1.9-33.9-5.7-42.7
		C239.5,457.4,233.4,453,225.1,453z"/>
	<path fill="#619B7F" d="M431.7,455.4H362v35.3h63.5v28.5H362v71.5h-32.4V426.9h102.1V455.4z"/>
	<path fill="#619B7F" d="M583.9,455.4h-69.7v35.3h63.5v28.5h-63.5v71.5h-32.4V426.9h102.1V455.4z"/>
</g>
</svg>
