<?xml version="1.0" encoding="utf-8"?>
<!-- Generator: Adobe Illustrator 18.1.1, SVG Export Plug-In . SVG Version: 6.00 Build 0)  -->
<svg version="1.1" id="Layer_1" xmlns="http://www.w3.org/2000/svg" xmlns:xlink="http://www.w3.org/1999/xlink" x="0px" y="0px"
	 viewBox="0 90 612 612" enable-background="new 0 90 612 612" xml:space="preserve">
<path fill="#619B7F" d="M305.8,90.3C137.7,90.3,0.9,227,0.9,395.1S137.7,700,305.8,700s304.8-136.7,304.8-304.8
	S473.9,90.3,305.8,90.3z M28,408.5h90c1.5,54.6,11.8,105.6,28.8,149.1H80.1C49.6,515.2,30.6,463.9,28,408.5z M292.4,190.4h-95.7
	c25.7-40.7,59-67.2,95.7-72.5V190.4z M292.4,217.1v164.7H144.7c1.7-62.5,15.4-119.6,37.3-164.7H292.4z M319.1,217.1h110.5
	c21.8,45.1,35.6,102.2,37.3,164.7H319.1V217.1z M319.1,190.4V118c36.8,5.2,70.1,31.8,95.7,72.5H319.1z M403.4,134.7
	c33.7,12.7,64.4,31.8,90.5,55.7H445C432.9,168.8,418.9,150,403.4,134.7z M166.6,190.4h-48.9c26.1-24,56.7-43,90.5-55.7
	C192.7,150,178.7,168.8,166.6,190.4z M153.2,217.1c-20.8,46.7-33.7,103.4-35.3,164.7H28c3-62.5,26.6-119.6,64.3-164.7H153.2z
	 M144.7,408.5h147.8v149.1H174.9C157.2,515.2,146.2,463.9,144.7,408.5z M292.4,584.3v88c-41.3-5.9-78.2-38.6-104.8-88H292.4z
	 M319.1,672.3v-88h104.8C397.3,633.7,360.4,666.4,319.1,672.3z M319.1,557.6V408.5h147.8c-1.5,55.5-12.5,106.7-30.3,149.1H319.1z
	 M493.6,408.5h90c-2.6,55.5-21.6,106.7-52.2,149.1h-66.6C481.8,514,492.1,463.1,493.6,408.5z M493.6,381.8
	c-1.6-61.3-14.5-117.9-35.3-164.7h61c37.6,45.1,61.3,102.2,64.3,164.7H493.6z M102.1,584.3h56.4c13.8,28.2,30.7,52.4,49.7,71.3
	C167.4,640.2,131.2,615.6,102.1,584.3z M403.4,655.6c19.1-18.9,35.9-43.1,49.7-71.3h56.4C480.4,615.6,444.2,640.2,403.4,655.6z"/>
</svg>
