<?xml version="1.0" encoding="utf-8"?>
<!-- Generator: Adobe Illustrator 18.1.1, SVG Export Plug-In . SVG Version: 6.00 Build 0)  -->
<svg version="1.1" id="Layer_1" xmlns="http://www.w3.org/2000/svg" xmlns:xlink="http://www.w3.org/1999/xlink" x="0px" y="0px"
	 viewBox="0 113.3 612 563.7" enable-background="new 0 113.3 612 563.7" xml:space="preserve">
<path fill="#619B7F" d="M0,113.3V677h610.1V113.3H0z M583.4,246.5h-122V139.9h122V246.5z M316.5,246.5V139.9h118.3v106.6H316.5z
	 M434.8,273.1v113.1H316.5V273.1H434.8z M289.9,246.5H171.6V139.9h118.3V246.5z M289.9,273.1v113.1H171.6V273.1H289.9z M144.9,386.2
	H26.6V273.1h118.3V386.2z M144.9,412.9V526H26.6V412.9H144.9z M171.6,412.9h118.3V526H171.6V412.9z M289.9,552.6v97.7H171.6v-97.7
	H289.9z M316.5,552.6h118.3v97.7H316.5V552.6z M316.5,526V412.9h118.3V526H316.5z M461.4,412.9h122V526h-122V412.9z M461.4,386.2
	V273.1h122v113.1H461.4z M144.9,139.9v106.6H26.6V139.9H144.9z M26.6,552.6h118.3v97.7H26.6V552.6z M461.4,650.4v-97.7h122v97.7
	H461.4z"/>
</svg>
