<?xml version="1.0" encoding="utf-8"?>
<!-- Generator: Adobe Illustrator 18.1.1, SVG Export Plug-In . SVG Version: 6.00 Build 0)  -->
<svg version="1.1" id="Layer_1" xmlns="http://www.w3.org/2000/svg" xmlns:xlink="http://www.w3.org/1999/xlink" x="0px" y="0px"
	 viewBox="0 146.9 595.3 695" enable-background="new 0 146.9 595.3 695" xml:space="preserve">
<g>
	<path fill="#619B7F" d="M282.5,711.8C126.7,711.8,0,585.1,0,429.4s126.7-282.5,282.5-282.5s282.5,126.7,282.5,282.5
		S438.2,711.8,282.5,711.8z M282.5,216.1c-117.7,0-213.2,95.7-213.2,213.2s95.7,213.2,213.2,213.2s213.2-95.7,213.2-213.2
		S400,216.1,282.5,216.1z"/>
</g>
<g>
	<path fill="#619B7F" d="M559.1,841.5c-10.4,0-20.6-4.7-27.4-13.6L397.5,653.1c-11.6-15.2-8.8-36.9,6.4-48.5
		c15.2-11.6,36.9-8.8,48.5,6.4l134.2,174.8c11.6,15.2,8.8,36.9-6.4,48.5C573.8,839.1,566.4,841.5,559.1,841.5z"/>
</g>
<g>
	<rect x="170.9" y="403.4" fill="#619B7F" width="223" height="51.9"/>
</g>
</svg>
