<?xml version="1.0" encoding="utf-8"?>
<!-- Generator: Adobe Illustrator 18.1.1, SVG Export Plug-In . SVG Version: 6.00 Build 0)  -->
<svg version="1.1" id="Layer_1" xmlns="http://www.w3.org/2000/svg" xmlns:xlink="http://www.w3.org/1999/xlink" x="0px" y="0px"
	 viewBox="0 145.6 595.3 696.3" enable-background="new 0 145.6 595.3 696.3" xml:space="preserve">
<g>
	<path fill="#619B7F" d="M283.1,711.8C127,711.8,0,584.8,0,428.7s127-283.1,283.1-283.1s283.1,127,283.1,283.1
		S439.4,711.8,283.1,711.8z M283.1,214.9c-117.9,0-213.8,96-213.8,213.8c0,117.9,96,213.8,213.8,213.8S497,546.6,497,428.7
		S401.1,214.9,283.1,214.9z"/>
</g>
<g>
	<path fill="#619B7F" d="M560.7,841.9c-10.4,0-20.6-4.7-27.6-13.6L398.5,653.1c-11.7-15.2-8.8-37,6.4-48.6
		c15.2-11.7,37-8.9,48.6,6.4l134.6,175.3c11.7,15.2,8.8,37-6.4,48.6C575.4,839.6,568,841.9,560.7,841.9z"/>
</g>
<g>
	<rect x="257.2" y="316.9" fill="#619B7F" width="52" height="223.6"/>
</g>
<g>
	<rect x="171.4" y="402.8" fill="#619B7F" width="223.6" height="52"/>
</g>
</svg>
