<?xml version="1.0" encoding="utf-8"?>
<!-- Generator: Adobe Illustrator 18.1.1, SVG Export Plug-In . SVG Version: 6.00 Build 0)  -->
<svg version="1.1" id="Layer_1" xmlns="http://www.w3.org/2000/svg" xmlns:xlink="http://www.w3.org/1999/xlink" x="0px" y="0px"
	 viewBox="0 90 612 612" enable-background="new 0 90 612 612" xml:space="preserve">
<path fill="#FBF267" d="M170,464H34c-18.8,0-34-15.2-34-34s15.2-34,34-34h136c18.8,0,34,15.2,34,34S188.8,464,170,464z M578,464H442
	c-18.8,0-34-15.2-34-34s15.2-34,34-34h136c18.8,0,34,15.2,34,34S596.8,464,578,464z"/>
<path fill="#FBF267" d="M102,260v137.8c0,130.2,0,227,170,236.6V328h68v306.4c136-9.9,170-107.8,170-236.6V260H102z"/>
<path fill="#FBF267" d="M142.8,321.2c-8.7,0-17.4-3.3-24-10l-81.6-81.6c-13.3-13.3-13.3-34.8,0-48.1s34.8-13.3,48.1,0l81.6,81.6
	c13.3,13.3,13.3,34.8,0,48.1C160.2,317.9,151.5,321.2,142.8,321.2z M469.2,321.2c-8.7,0-17.4-3.3-24-10c-13.3-13.3-13.3-34.8,0-48.1
	l81.6-81.6c13.3-13.3,34.8-13.3,48.1,0c13.3,13.3,13.3,34.8,0,48.1l-81.6,81.6C486.6,317.9,477.9,321.2,469.2,321.2L469.2,321.2z
	 M61.2,702c-8.7,0-17.4-3.3-24-10c-13.3-13.3-13.3-34.8,0-48.1L146,535.2c13.3-13.3,34.8-13.3,48.1,0c13.3,13.3,13.3,34.8,0,48.1
	L85.2,692C78.6,698.7,69.9,702,61.2,702L61.2,702z M550.8,702c-8.7,0-17.4-3.3-24-10L418,583.2c-13.3-13.3-13.3-34.8,0-48.1
	c13.3-13.3,34.8-13.3,48.1,0L574.8,644c13.3,13.3,13.3,34.8,0,48.1C568.2,698.7,559.5,702,550.8,702L550.8,702z M408,192
	c0-34-45.7-102-102-102s-102,68-102,102H408z"/>
</svg>
