<?xml version="1.0" encoding="utf-8"?>
<!-- Generator: Adobe Illustrator 18.1.1, SVG Export Plug-In . SVG Version: 6.00 Build 0)  -->
<svg version="1.1" id="Layer_1" xmlns="http://www.w3.org/2000/svg" xmlns:xlink="http://www.w3.org/1999/xlink" x="0px" y="0px"
	 viewBox="0 90 612 612" enable-background="new 0 90 612 612" xml:space="preserve">
<path fill="#38B349" d="M136,124h102v170H136V124z"/>
<path fill="#38B349" d="M552.5,702h-493C26.7,702,0,675.3,0,642.5v-493C0,116.7,26.7,90,59.5,90H374c25.4,0,58.1,13.5,76.1,31.5
	l130.4,130.4c18,18,31.5,50.7,31.5,76.1v314.5C612,675.3,585.3,702,552.5,702z M59.5,141c-4.6,0-8.5,3.9-8.5,8.5v493
	c0,4.6,3.9,8.5,8.5,8.5h493c4.6,0,8.5-3.9,8.5-8.5V328c0-11.8-8.2-31.6-16.6-40L414,157.6c-8.4-8.4-28.2-16.6-40-16.6H59.5z"/>
<path fill="#38B349" d="M442,702H170c-32.8,0-59.5-26.7-59.5-59.5V498c0-32.8,26.7-59.5,59.5-59.5h272c32.8,0,59.5,26.7,59.5,59.5
	v144.5C501.5,675.3,474.8,702,442,702z M170,489.5c-4.6,0-8.5,3.9-8.5,8.5v144.5c0,4.6,3.9,8.5,8.5,8.5h272c4.6,0,8.5-3.9,8.5-8.5
	V498c0-4.6-3.9-8.5-8.5-8.5H170z M340,328H170c-32.8,0-59.5-26.7-59.5-59.5v-119c0-32.8,26.7-59.5,59.5-59.5h170
	c32.8,0,59.5,26.7,59.5,59.5v119C399.5,301.3,372.8,328,340,328z M170,141c-4.6,0-8.5,3.9-8.5,8.5v119c0,4.6,3.9,8.5,8.5,8.5h170
	c4.6,0,8.5-3.9,8.5-8.5v-119c0-4.6-3.9-8.5-8.5-8.5H170z"/>
</svg>
