<?xml version="1.0" encoding="utf-8"?>
<!-- Generator: Adobe Illustrator 18.1.1, SVG Export Plug-In . SVG Version: 6.00 Build 0)  -->
<svg version="1.1" id="Layer_1" xmlns="http://www.w3.org/2000/svg" xmlns:xlink="http://www.w3.org/1999/xlink" x="0px" y="0px"
	 viewBox="0 135.3 612 487.7" enable-background="new 0 135.3 612 487.7" xml:space="preserve">
<path fill="#0087F4" d="M508.4,362.5c11-14.7,17.9-32.9,17.9-53c0-48.1-37.9-87.1-84.7-87.1c-16.4,0-31.6,5-44.5,13.3
	c-28.4-59.5-87.7-100.4-156.4-100.4c-96.3,0-174.3,80.2-174.3,179c0,9.1,0.9,17.9,2.1,26.6C27.8,369.2,1,414.4,1,468.7
	C1,555.3,69.3,623,153.5,623h326.8c0,0,130.7-57.6,130.7-131.8C611,426.8,567.1,375.7,508.4,362.5z M306,562.1L184,439.9h61V287.4
	h122v152.5h61L306,562.1z"/>
</svg>
