<?xml version="1.0" encoding="utf-8"?>
<!-- Generator: Adobe Illustrator 18.1.1, SVG Export Plug-In . SVG Version: 6.00 Build 0)  -->
<svg version="1.1" id="Layer_1" xmlns="http://www.w3.org/2000/svg" xmlns:xlink="http://www.w3.org/1999/xlink" x="0px" y="0px"
	 viewBox="0 0 18.01 18.007" style="enable-background:new 0 0 18.01 18.007;" xml:space="preserve">
<style type="text/css">
	.st0{clip-path:url(#SVGID_2_);fill:#00D1A9;}
</style>
<g>
	<defs>
		<rect id="SVGID_1_" y="0" width="18.01" height="18.007"/>
	</defs>
	<clipPath id="SVGID_2_">
		<use xlink:href="#SVGID_1_"  style="overflow:visible;"/>
	</clipPath>
	<path class="st0" d="M15.373,2.637C13.615,0.879,11.312,0,9.005,0c-2.306,0-4.61,0.876-6.368,2.637
		c-3.516,3.516-3.516,9.218,0,12.734c1.758,1.758,4.064,2.637,6.368,2.637s4.61-0.879,6.368-2.637
		C18.889,11.855,18.889,6.153,15.373,2.637 M2.448,11.666c-0.345-0.847-0.516-1.743-0.516-2.663c0-0.921,0.174-1.817,0.516-2.664
		C2.802,5.463,3.327,4.675,4.003,4c0.675-0.675,1.463-1.2,2.339-1.554c0.846-0.346,1.743-0.52,2.663-0.52s1.817,0.174,2.664,0.52
		c0.483,0.197,0.94,0.442,1.365,0.74l-9.848,9.846C2.891,12.607,2.643,12.15,2.448,11.666 M15.562,11.666
		c-0.354,0.876-0.879,1.664-1.554,2.339c-0.676,0.675-1.463,1.2-2.339,1.554c-0.847,0.346-1.744,0.517-2.664,0.517
		s-1.817-0.174-2.663-0.517c-0.469-0.191-0.915-0.43-1.331-0.713l9.837-9.837c0.286,0.416,0.525,0.861,0.714,1.33
		c0.345,0.847,0.519,1.743,0.519,2.664C16.081,9.923,15.904,10.819,15.562,11.666"/>
</g>
</svg>
