<?xml version="1.0" encoding="utf-8"?>
<!-- Generator: Adobe Illustrator 18.1.1, SVG Export Plug-In . SVG Version: 6.00 Build 0)  -->
<svg version="1.1" id="Layer_1" xmlns="http://www.w3.org/2000/svg" xmlns:xlink="http://www.w3.org/1999/xlink" x="0px" y="0px"
	 viewBox="0 115.9 612 490.1" enable-background="new 0 115.9 612 490.1" xml:space="preserve">
<path fill="#D5027F" d="M558.5,606h-505c-29.5,0-53.7-24-53.7-53.7v-30.6c0-29.5,24-53.7,53.7-53.7h505.2c29.5,0,53.7,24,53.7,53.7
	v30.6C612.2,582,588.2,606,558.5,606z M53.4,514.1c-4.1,0-7.6,3.4-7.6,7.6v30.6c0,4.1,3.4,7.6,7.6,7.6h505.2c4.1,0,7.6-3.4,7.6-7.6
	v-30.6c0-4.1-3.4-7.6-7.6-7.6H53.4z M558.5,429.8h-505c-29.5,0-53.7-24-53.7-53.7v-30.6c0-29.5,24-53.7,53.7-53.7h505.2
	c29.5,0,53.7,24,53.7,53.7v30.6C612.2,405.9,588.2,429.8,558.5,429.8z M53.4,338c-4.1,0-7.6,3.4-7.6,7.6v30.6c0,4.1,3.4,7.6,7.6,7.6
	h505.2c4.1,0,7.6-3.4,7.6-7.6v-30.6c0-4.1-3.4-7.6-7.6-7.6H53.4z M558.5,253.9h-505c-29.5,0-53.7-24-53.7-53.7v-30.6
	c0-29.5,24-53.7,53.7-53.7h505.2c29.5,0,53.7,24,53.7,53.7v30.6C612.2,229.9,588.2,253.9,558.5,253.9z M53.4,162
	c-4.1,0-7.6,3.4-7.6,7.6v30.6c0,4.1,3.4,7.6,7.6,7.6h505.2c4.1,0,7.6-3.4,7.6-7.6v-30.6c0-4.1-3.4-7.6-7.6-7.6H53.4z"/>
<path fill="#D5027F" d="M30.4,514.1H306v61.2H30.4V514.1z M30.4,146.7h428.7v61.2H30.4V146.7z M30.4,330.4h153.1v61.2H30.4V330.4z"
	/>
</svg>
