<?xml version="1.0" encoding="utf-8"?>
<!-- Generator: Adobe Illustrator 18.1.1, SVG Export Plug-In . SVG Version: 6.00 Build 0)  -->
<svg version="1.1" id="Layer_1" xmlns="http://www.w3.org/2000/svg" xmlns:xlink="http://www.w3.org/1999/xlink" x="0px" y="0px"
	 viewBox="0 183.1 612 608.9" enable-background="new 0 183.1 612 608.9" xml:space="preserve">
<path d="M10.6,384.5h125.5V792H10.6V384.5z M74.5,183.1c40.2,0,73.4,33.2,73.4,73.4s-33.2,73.4-73.4,73.4S1.1,296.7,1.1,256.5
	S34.3,183.1,74.5,183.1z M216.6,384.5h120.8V439h2.4c16.6-33.3,59.2-66.4,120.8-66.4c127.9,0,151.5,85.4,151.5,194.4v222.7H486.6
	v-199c0-47.4,0-109-66.2-109s-75.8,52.1-75.8,104.3v201.3h-128L216.6,384.5L216.6,384.5z"/>
</svg>
