<?xml version="1.0" encoding="utf-8"?>
<!-- Generator: Adobe Illustrator 18.1.1, SVG Export Plug-In . SVG Version: 6.00 Build 0)  -->
<svg version="1.1" id="Layer_1" xmlns="http://www.w3.org/2000/svg" xmlns:xlink="http://www.w3.org/1999/xlink" x="0px" y="0px"
	 viewBox="0 87.9 612 616.3" enable-background="new 0 87.9 612 616.3" xml:space="preserve">
<path fill="#629C7F" d="M611.9,361.6h-81.1v-81h-41.4v81h-81.1v39.7h81.1v81.1h41.4v-81.1h81.1V361.6z M322,437.9l-29.6-22.5
	c-9-7.2-21.3-16.9-21.3-34.8c0-17.8,12.2-29,22.9-39.7c34.4-26.6,68.8-54.9,68.8-114.4c0-61.4-37.2-91-56.2-106.3h48.5l53.1-32.3
	H237.4c-44.3,0-104,4.5-150.6,42.6c-35.2,29.7-46.7,73.7-46.7,110.8c0,62.9,49.2,126.7,136.1,126.7c8.3,0,17.1-0.8,26.1-1.7
	c-4.1,9.6-8.2,17.7-8.2,31.5c0,25,13.2,40.4,24.5,54.8c-36.6,2.3-105.4,6.4-156.2,37.1C14,518.2-0.7,559.2-0.7,588.2
	c0,59.8,54.9,116,173.7,116c140.8,0,217.6-77.2,217.6-153.1C390.8,495.1,358,467.9,322,437.9L322,437.9z M214.8,347.4
	c-70.5,0-102.3-89.5-102.3-143.6c0-21,4.2-44.8,18-61.8c13.2-16.2,36-24.6,57.3-24.6c67.9-0.1,103.2,90.3,103.2,148.3
	c0,14.6-1.5,38.2-20.5,56.9C257.4,335.6,235.2,347.1,214.8,347.4L214.8,347.4z M215.3,669.7c-87.6,0-144.2-41.1-144.2-98.6
	c0-57.3,52.4-76.6,70.5-83.1c34.4-11.4,78.6-13,85.9-13c8.2,0,12.3,0,18.8,0.9c62.4,43.6,89.3,65.2,89.3,106.5
	C335.8,632.4,294,669.7,215.3,669.7L215.3,669.7z"/>
</svg>
