<?xml version="1.0" encoding="utf-8"?>
<!-- Generator: Adobe Illustrator 18.1.1, SVG Export Plug-In . SVG Version: 6.00 Build 0)  -->
<svg version="1.1" id="Layer_1" xmlns="http://www.w3.org/2000/svg" xmlns:xlink="http://www.w3.org/1999/xlink" x="0px" y="0px"
	 viewBox="0 251.1 595.3 339.6" enable-background="new 0 251.1 595.3 339.6" xml:space="preserve">
<path fill="#629C7F" d="M291.3,589.3h35.6c0,0,10.8-1.2,16.1-7.1c5.1-5.4,4.8-15.7,4.8-15.7s-0.7-47.8,21.5-54.8
	c21.8-6.9,49.9,46.1,79.6,66.5c22.5,15.5,39.6,12.1,39.6,12.1l79.6-1.2c0,0,41.6-2.5,21.9-35.2c-1.7-2.6-11.5-24.2-59.1-68.4
	c-49.8-46.3-43.1-38.8,16.9-118.8c36.7-48.7,51.4-78.5,46.7-91.2c-4.3-12.2-31.2-8.9-31.2-8.9l-89.5,0.6c0,0-6.6-0.9-11.6,2
	c-4.8,2.9-7.9,9.6-7.9,9.6s-14.1,37.7-33.1,69.7c-39.9,67.6-55.8,71.3-62.3,67.1c-15.2-9.8-11.4-39.3-11.4-60.4
	c0-65.6,9.9-93-19.4-100c-9.7-2.3-16.8-3.9-41.7-4.2c-32-0.4-59,0.1-74.3,7.6c-10.2,5-18,16.1-13.2,16.7c5.9,0.8,19.4,3.6,26.4,13.3
	c9.2,12.5,8.9,40.5,8.9,40.5s5.3,77.2-12.4,86.9c-12.1,6.6-28.6-6.8-64.1-68.3c-18.2-31.4-32-66.2-32-66.2s-2.6-6.5-7.4-9.9
	c-5.7-4.3-13.8-5.5-13.8-5.5l-84.9,0.5c0,0-12.7,0.4-17.5,5.9c-4.2,5-0.3,15.1-0.3,15.1s66.6,155.8,142,234.3
	C212.8,594.1,291.3,589.3,291.3,589.3"/>
</svg>
