<?xml version="1.0" encoding="utf-8"?>
<!-- Generator: Adobe Illustrator 18.1.1, SVG Export Plug-In . SVG Version: 6.00 Build 0)  -->
<svg version="1.1" id="Layer_1" xmlns="http://www.w3.org/2000/svg" xmlns:xlink="http://www.w3.org/1999/xlink" x="0px" y="0px"
	 viewBox="0 26.685 279.968 279.968" enable-background="new 0 26.685 279.968 279.968" xml:space="preserve">
<circle fill="#1C2421" cx="139.984" cy="166.669" r="139.984"/>
<g>
	<g>
		<defs>
			<rect id="SVGID_1_" x="58.628" y="85.338" width="162.712" height="162.685"/>
		</defs>
		<clipPath id="SVGID_2_">
			<use xlink:href="#SVGID_1_"  overflow="visible"/>
		</clipPath>
		<path clip-path="url(#SVGID_2_)" fill="#00D1A9" d="M197.516,109.162c-15.883-15.883-36.689-23.824-57.532-23.824
			c-20.834,0-41.649,7.914-57.532,23.824c-31.765,31.765-31.765,83.28,0,115.046c15.883,15.883,36.716,23.824,57.532,23.824
			s41.649-7.941,57.532-23.824C229.281,192.443,229.281,140.928,197.516,109.162 M80.745,190.735
			c-3.117-7.652-4.662-15.747-4.662-24.059c0-8.321,1.572-16.416,4.662-24.068c3.198-7.914,7.941-15.033,14.049-21.132
			c6.098-6.098,13.218-10.841,21.132-14.04c7.643-3.126,15.747-4.698,24.059-4.698c8.312,0,16.416,1.572,24.068,4.698
			c4.364,1.78,8.492,3.993,12.332,6.686l-88.972,88.954C84.747,199.237,82.506,195.108,80.745,190.735 M199.224,190.735
			c-3.198,7.914-7.941,15.033-14.04,21.132c-6.107,6.098-13.218,10.841-21.132,14.04c-7.652,3.126-15.756,4.671-24.068,4.671
			c-8.312,0-16.416-1.572-24.059-4.671c-4.237-1.726-8.267-3.885-12.025-6.442l88.873-88.873c2.584,3.758,4.743,7.779,6.451,12.016
			c3.117,7.652,4.689,15.747,4.689,24.068C203.912,174.988,202.313,183.083,199.224,190.735"/>
	</g>
</g>
</svg>
