<svg xmlns="http://www.w3.org/2000/svg" viewBox="0 0 36 36"><circle cx="18" cy="18" r="18" fill="#1C2421"/><path fill="#38B349" d="M13 10h3v5h-3z"/><path d="M25.25 27h-14.5C9.785 27 9 26.215 9 25.25v-14.5C9 9.785 9.785 9 10.75 9H20c.747 0 1.71.398 2.237.927l3.836 3.836c.53.528.927 1.49.927 2.237v9.25c0 .965-.785 1.75-1.75 1.75zm-14.5-16.5c-.136 0-.25.114-.25.25v14.5c0 .136.114.25.25.25h14.5c.136 0 .25-.114.25-.25V16c0-.348-.24-.93-.487-1.177l-3.836-3.836c-.246-.246-.83-.487-1.177-.487h-9.25z" fill="#38B349"/><path d="M22 27h-8c-.965 0-1.75-.785-1.75-1.75V21c0-.965.785-1.75 1.75-1.75h8c.965 0 1.75.785 1.75 1.75v4.25c0 .965-.785 1.75-1.75 1.75zm-8-6.25c-.136 0-.25.114-.25.25v4.25c0 .136.114.25.25.25h8c.136 0 .25-.114.25-.25V21c0-.136-.114-.25-.25-.25h-8zM19 16h-5c-.965 0-1.75-.785-1.75-1.75v-3.5c0-.965.785-1.75 1.75-1.75h5c.965 0 1.75.785 1.75 1.75v3.5c0 .965-.785 1.75-1.75 1.75zm-5-5.5c-.136 0-.25.114-.25.25v3.5c0 .136.114.25.25.25h5c.136 0 .25-.114.25-.25v-3.5c0-.136-.114-.25-.25-.25h-5z" fill="#38B349"/></svg>