<svg xmlns="http://www.w3.org/2000/svg" viewBox="0 0 36 36"><circle cx="18" cy="18" r="18" fill="#1C2421"/><path d="M14 20h-4c-.552 0-1-.448-1-1s.448-1 1-1h4c.552 0 1 .448 1 1s-.448 1-1 1zm12 0h-4c-.552 0-1-.448-1-1s.448-1 1-1h4c.552 0 1 .448 1 1s-.448 1-1 1z" fill="#FBF267"/><path d="M12 14v4.052c0 3.83 0 6.676 5 6.96V16h2v9.013c4-.29 5-3.17 5-6.96V14H12z" fill="#FBF267"/><path d="M13.2 15.8c-.256 0-.512-.098-.707-.293l-2.4-2.4c-.39-.39-.39-1.023 0-1.414s1.023-.39 1.414 0l2.4 2.4c.39.39.39 1.023 0 1.414-.195.195-.45.293-.707.293zm9.6 0c-.256 0-.512-.098-.707-.293-.39-.39-.39-1.024 0-1.414l2.4-2.4c.39-.39 1.023-.39 1.414 0s.39 1.024 0 1.414l-2.4 2.4c-.195.195-.45.293-.707.293zM10.8 27c-.256 0-.512-.098-.707-.293-.39-.39-.39-1.023 0-1.414l3.2-3.2c.39-.39 1.023-.39 1.414 0s.39 1.023 0 1.414l-3.2 3.2c-.195.195-.45.293-.707.293zm14.4 0c-.256 0-.512-.098-.707-.293l-3.2-3.2c-.39-.39-.39-1.023 0-1.414s1.023-.39 1.414 0l3.2 3.2c.39.39.39 1.023 0 1.414-.195.195-.45.293-.707.293zM21 12c0-1-1.343-3-3-3s-3 2-3 3h6z" fill="#FBF267"/></svg>