<svg xmlns="http://www.w3.org/2000/svg" viewBox="0 0 36 36"><circle cx="18" cy="18" r="18" fill="#1C2421"/><path d="M26.25 26H9.75C8.785 26 8 25.215 8 24.25v-1c0-.965.785-1.75 1.75-1.75h16.5c.965 0 1.75.785 1.75 1.75v1c0 .965-.785 1.75-1.75 1.75zm-16.5-3c-.136 0-.25.114-.25.25v1c0 .136.114.25.25.25h16.5c.136 0 .25-.114.25-.25v-1c0-.136-.114-.25-.25-.25H9.75zm16.5-2.75H9.75c-.965 0-1.75-.785-1.75-1.75v-1c0-.965.785-1.75 1.75-1.75h16.5c.965 0 1.75.785 1.75 1.75v1c0 .965-.785 1.75-1.75 1.75zm-16.5-3c-.136 0-.25.114-.25.25v1c0 .136.114.25.25.25h16.5c.136 0 .25-.114.25-.25v-1c0-.136-.114-.25-.25-.25H9.75zm16.5-2.75H9.75c-.965 0-1.75-.785-1.75-1.75v-1c0-.965.785-1.75 1.75-1.75h16.5c.965 0 1.75.785 1.75 1.75v1c0 .965-.785 1.75-1.75 1.75zm-16.5-3c-.136 0-.25.114-.25.25v1c0 .136.114.25.25.25h16.5c.136 0 .25-.114.25-.25v-1c0-.136-.114-.25-.25-.25H9.75z" fill="#D5027F"/><path fill="#D5027F" d="M9 23h9v2H9zm0-12h14v2H9zm0 6h5v2H9z"/></svg>